<svg xmlns="http://www.w3.org/2000/svg" width="640" height="420" viewBox="0 0 640 420">
  <defs>
    <linearGradient id="g" x1="0" y1="0" x2="1" y2="1">
      <stop offset="0" stop-color="#64748b"/>
      <stop offset="1" stop-color="#0ea5e9"/>
    </linearGradient>
    <linearGradient id="shine" x1="0" y1="0" x2="0" y2="1">
      <stop offset="0" stop-color="#ffffff" stop-opacity="0.18"/>
      <stop offset="1" stop-color="#ffffff" stop-opacity="0"/>
    </linearGradient>
  </defs>
  <rect x="0" y="0" width="640" height="420" rx="28" fill="#0b1220"/>
  <rect x="18" y="18" width="604" height="384" rx="22" fill="url(#g)" opacity="0.18"/>
  <rect x="18" y="18" width="604" height="384" rx="22" fill="url(#shine)"/>
  <g fill="none" stroke="#e8edf7" stroke-opacity="0.65" stroke-width="10" stroke-linecap="round" stroke-linejoin="round">
    <path d="M250 150c25-35 50-52 70-52s45 17 70 52"/>
    <path d="M250 150v160c0 18 14 32 32 32h76c18 0 32-14 32-32V150"/>
    <path d="M280 185h80"/>
  </g>
  <text x="48" y="78" fill="#e8edf7" font-family="Inter,Segoe UI,Arial" font-size="30" font-weight="700">Item</text>
  <text x="48" y="112" fill="#e8edf7" opacity="0.75" font-family="Inter,Segoe UI,Arial" font-size="18">ReWear demo image</text>
</svg>