<svg width="64" height="64" viewBox="0 0 64 64" fill="none" xmlns="http://www.w3.org/2000/svg">
  <defs>
    <linearGradient id="g1" x1="8" y1="8" x2="56" y2="56" gradientUnits="userSpaceOnUse">
      <stop stop-color="#7C3AED"/>
      <stop offset="0.5" stop-color="#06B6D4"/>
      <stop offset="1" stop-color="#22C55E"/>
    </linearGradient>
    <filter id="shadow" x="-20%" y="-20%" width="140%" height="140%">
      <feDropShadow dx="0" dy="6" stdDeviation="6" flood-color="#000000" flood-opacity="0.35"/>
    </filter>
  </defs>

  <!-- outer ring -->
  <circle cx="32" cy="32" r="26" stroke="url(#g1)" stroke-width="6" opacity="0.95" filter="url(#shadow)"/>
  <!-- inner blob -->
  <path d="M18 36.5C18 25.2 26.8 16 38.3 16c6.2 0 11.7 2.8 15.2 7.1-1.6 17.2-13.6 29.9-29.7 30.9C20.2 49.7 18 43.5 18 36.5Z" fill="url(#g1)" opacity="0.18"/>
  <!-- stylized R -->
  <path d="M24 46V18h14.2c6 0 10.3 3.7 10.3 9 0 4.4-2.8 7.5-7.3 8.6L50 46h-7.7l-7.5-9.6H31.1V46H24Zm7.1-15.4h6.7c3.1 0 4.9-1.4 4.9-3.9 0-2.4-1.8-3.8-4.9-3.8h-6.7v7.7Z" fill="#EAF2FF"/>
</svg>
